<?xml version="1.0" standalone="no"?>
<!DOCTYPE svg PUBLIC "-//W3C//DTD SVG 20010904//EN"
 "http://www.w3.org/TR/2001/REC-SVG-20010904/DTD/svg10.dtd">
<svg version="1.0" xmlns="http://www.w3.org/2000/svg"
 width="1254.000000pt" height="1254.000000pt" viewBox="0 0 1254.000000 1254.000000"
 preserveAspectRatio="xMidYMid meet">

<g transform="translate(0.000000,1254.000000) scale(0.100000,-0.100000)"
fill="#007059" stroke="none">
<path d="M5420 8798 c-237 -22 -510 -129 -719 -284 -88 -65 -259 -231 -334
-324 -94 -117 -172 -242 -252 -405 -107 -217 -165 -397 -201 -623 -21 -128
-31 -696 -13 -718 14 -17 147 -18 1107 -7 l623 6 -3 131 -3 131 -602 3 -603 2
0 109 c0 219 56 442 165 656 188 369 449 595 758 659 67 14 239 16 1466 16
l1391 0 14 23 c9 12 47 56 85 97 65 69 88 102 59 84 -7 -4 -8 -3 -4 5 4 6 10
10 14 7 11 -5 52 41 44 50 -4 4 -2 4 4 1 15 -9 77 60 68 75 -4 6 -3 8 4 4 6
-3 20 6 31 20 12 15 46 54 76 86 31 33 52 64 49 70 -4 6 -3 8 3 5 5 -3 28 14
51 37 40 42 55 65 30 50 -7 -4 -8 -3 -4 5 4 6 12 8 18 5 9 -6 27 12 28 26 0 8
-3265 6 -3350 -2z m3100 -262 c0 -2 -8 -10 -17 -17 -16 -13 -17 -12 -4 4 13
16 21 21 21 13z"/>
<path d="M6263 6889 c-111 -43 -188 -159 -187 -284 2 -270 330 -401 520 -208
90 92 112 238 53 354 -25 51 -111 124 -166 143 -63 22 -156 20 -220 -5z"/>
<path d="M7130 6691 c-15 -30 -13 -236 3 -250 10 -7 238 -9 810 -4 l798 6 -3
131 -3 131 -797 3 c-780 2 -797 2 -808 -17z"/>
<path d="M7749 5923 c-6 -21 -34 -84 -60 -141 -27 -57 -46 -108 -43 -113 3 -5
1 -8 -4 -7 -5 2 -37 -37 -69 -87 -174 -263 -379 -448 -580 -521 l-78 -29
-1212 -3 -1212 -2 -68 -83 c-37 -45 -117 -141 -178 -213 -149 -178 -230 -276
-239 -292 -6 -10 271 -12 1456 -9 1617 3 1484 -2 1692 68 368 123 711 444 940
881 67 128 97 204 89 225 -4 10 -2 14 5 10 6 -5 19 15 32 50 30 80 81 283 74
294 -3 5 -121 9 -269 9 l-263 0 -13 -37z m204 -754 c5 -4 5 -9 -2 -13 -6 -4
-11 -1 -11 6 0 10 -3 9 -11 -2 -9 -12 -10 -12 -5 3 3 10 6 24 7 30 0 7 3 5 6
-3 3 -8 10 -18 16 -21z"/>
</g>
</svg>
